<?xml version="1.0" encoding="UTF-8"?>
<svg width="135px" height="30px" viewBox="0 0 135 30" version="1.1" xmlns="http://www.w3.org/2000/svg" xmlns:xlink="http://www.w3.org/1999/xlink">
    <!-- Generator: Sketch 49.3 (51167) - http://www.bohemiancoding.com/sketch -->
    <title>az-pt-logo</title>
    <desc>Created with Sketch.</desc>
    <defs>
        <polygon id="path-1" points="0 0.129836066 30.321541 0.129836066 30.321541 29.7540246 0 29.7540246"></polygon>
    </defs>
    <g id="注册登录" stroke="none" stroke-width="1" fill="none" fill-rule="evenodd">
        <g id="1-登录" transform="translate(-360.000000, -18.000000)">
            <g id="导航">
                <g id="az-pt-logo" transform="translate(360.000000, 18.000000)">
                    <polygon id="Fill-1" fill="#FEFEFE" points="91.1040984 24.2982541 91.1040984 5.47792623 112.015328 5.47792623 112.015328 8.26620492 93.8921311 8.26620492 93.8921311 13.4938279 108.530164 13.4938279 108.530164 16.2821066 93.8921311 16.2821066 93.8921311 21.5099754 112.015328 21.5099754 112.015328 24.2982541"></polygon>
                    <polygon id="Fill-2" fill="#FEFEFE" points="66.7074836 24.2982541 66.7074836 21.5099754 83.0501066 8.26620492 66.7074836 8.26620492 66.7074836 5.47792623 87.618959 5.47792623 87.6187131 8.26620492 71.276582 21.5099754 87.618959 21.5099754 87.618959 24.2982541"></polygon>
                    <polygon id="Fill-3" fill="#FEFEFE" points="131.29259 5.47787705 125.216607 12.7191885 119.140131 5.47787705 115.500787 5.47787705 123.396689 14.888041 115.500787 24.2982049 119.140131 24.2982049 125.216607 17.0568934 131.29259 24.2982049 134.932426 24.2982049 127.036525 14.888041 134.932426 5.47787705"></polygon>
                    <polygon id="Fill-4" fill="#FEFEFE" points="54.0942295 18.7217459 43.6089836 18.7217459 43.6089836 21.5100246 55.5187377 21.5100246"></polygon>
                    <polygon id="Fill-5" fill="#FEFEFE" points="50.3463689 5.47787705 40.7247295 24.2982049 43.856041 24.2982049 51.9735 8.42033607 60.0907131 24.2982049 63.2220246 24.2982049 53.6006311 5.47787705"></polygon>
                    <g id="Group-8" transform="translate(0.000000, 0.116066)">
                        <mask id="mask-2" fill="white">
                            <use xlink:href="#path-1"></use>
                        </mask>
                        <g id="Clip-7"></g>
                        <path d="M26.1392459,16.8586967 C25.9781803,16.8586967 25.8198197,16.8700082 25.6631803,16.8877131 L17.5735082,5.94435246 C18.1299836,5.32689344 18.471541,4.51172951 18.471541,3.61517213 C18.471541,1.6900082 16.9112951,0.129762295 14.986623,0.129762295 C13.061459,0.129762295 11.5012131,1.6900082 11.5012131,3.61517213 C11.5012131,4.66812295 11.9703934,5.61017213 12.7088361,6.24902459 L5.37113115,19.3056639 C5.32318033,19.3041885 5.27621311,19.2985328 5.22777049,19.2985328 C2.34063934,19.2985328 -9.83606557e-05,21.6390246 -9.83606557e-05,24.5264016 C-9.83606557e-05,27.4135328 2.34063934,29.7540246 5.22777049,29.7540246 C8.11490164,29.7540246 10.4556393,27.4135328 10.4556393,24.5264016 C10.4556393,24.122877 10.4057213,23.7321393 10.3191639,23.3549262 L13.3673607,20.7712377 C13.7981803,21.1548443 14.3642459,21.3896803 14.986623,21.3896803 C16.333918,21.3896803 17.4259672,20.2971393 17.4259672,18.9498443 C17.4259672,17.6025492 16.333918,16.5102541 14.986623,16.5102541 C13.639082,16.5102541 12.5470328,17.6025492 12.5470328,18.9498443 C12.5470328,19.1111557 12.5632623,19.2682869 12.5930164,19.4207459 L9.32768852,20.5582869 L14.4311311,7.05164754 C14.6121148,7.08090984 14.7970328,7.10009016 14.986623,7.10009016 C15.346377,7.10009016 15.6935902,7.0455 16.0206393,6.94418852 L22.5685082,18.8721393 C22.1829344,19.5050902 21.9569508,20.2455 21.9569508,21.0409918 C21.9569508,23.3507459 23.8292459,25.2235328 26.1392459,25.2235328 C28.449,25.2235328 30.321541,23.3507459 30.321541,21.0409918 C30.321541,18.7312377 28.449,16.8586967 26.1392459,16.8586967" id="Fill-6" fill="#D9A655" mask="url(#mask-2)"></path>
                    </g>
                </g>
            </g>
        </g>
    </g>
</svg>